<svg xmlns="http://www.w3.org/2000/svg" height="102" width="192" viewBox="0 0 1293 400"><path d="M200 0C89.5 0 0 89.5 0 200s89.5 200 200 200 200-89.5 200-200S310.5 0 200 0zm0 287.1l-23.2-22.9c12.8-12.7 33.5-12.7 46.3 0L200 287.1zm46.3-45.9c-25.6-25.3-67.1-25.3-92.7 0l-23.2-22.9c38.4-38 100.6-38 139 0l-23.1 22.9zm46.4-45.9c-51.2-50.7-134.1-50.7-185.3 0l-23.2-22.9c64-63.3 167.7-63.3 231.7 0l-23.2 22.9zM819 230.9v-31.6h48.9l8.2 31.6H819zm-233.1-92.3h-40.1v54.8h-46.4v-54.8h-40.1v147.9h40.1v-60.3h46.4v60.3h40.1V138.6zm123.2 59c-4.7-8.9-11.4-15.8-20-20.6s-18.6-7.2-29.8-7.2c-18.2 0-32.4 5.2-42.4 15.5-10.1 10.4-15.1 24.9-15.1 43.5 0 18.3 5.2 32.8 15.4 43.5 10.3 10.7 24.1 16.1 41.5 16.1 18.1 0 32.3-5.3 42.3-15.7 10.1-10.5 15.1-25.1 15.1-43.8 0-11.9-2.4-22.4-7-31.3zm-63.3 9.1c2.6-5 7-7.4 13.1-7.4 6.2 0 10.6 2.5 13.1 7.5 2.6 5 3.8 12.4 3.8 22.2 0 9.9-1.3 17.3-3.8 22.5-2.5 5.2-6.9 7.7-13 7.7-6.2 0-10.6-2.6-13.3-7.7-2.6-5.2-3.9-12.7-3.9-22.5s1.4-17.4 4-22.3zm128.7 39.4v-44.6h28.1v-29.6h-28.1V149h-25.9l-10.2 24-17.6 12.4v16.1h13.9v47.3c0 13.5 2.9 23.5 8.8 30s15.4 9.7 28.7 9.7c6.5 0 12.1-.5 16.9-1.5s9.9-2.6 15.2-4.9v-28.8c-7.4 2.6-13.8 3.9-19.1 3.9-7.1 0-10.7-3.7-10.7-11.1zm306.4-107.5h-38.5l-16.4 74.3c-3.9 18.5-6.3 31.4-7.2 38.9-.7-5.8-2.2-14.6-4.4-26.3s-4.4-22.1-6.6-31l-12.6-55.9h-37L945 194.5c-2 7.7-4.1 17.5-6.3 29.3-2.3 11.8-3.8 21.1-4.7 28-1.4-9.7-3.8-22.7-7.5-39.1l-16.1-74.1h-38.5l36.6 147.9h47.2c8.6-38.8 13.5-60.9 14.7-66.3 1.2-5.5 2.4-11.5 3.6-18 1.2-6.5 2.1-12 2.6-16.3.7 5.4 1.7 12.1 3.2 20.1s2.5 13.4 3.2 16.1l14.2 64.4h47.2l36.5-147.9zm30.7 22.1c14.1 0 21.1-5.8 21.1-17.4 0-5.8-1.7-10.2-5-13.1-3.4-3-8.7-4.4-16.1-4.4s-12.7 1.5-16 4.4c-3.3 2.9-5 7.3-5 13.3.1 11.4 7.1 17.2 21 17.2zm19.7 11.2h-39.5v114.6h39.5V171.9zm60.7 59h44.3v-32.1H1192v-28.2h48v-32.1h-87.4v147.9h39.3l.1-55.5zm79.9-70.2c14.1 0 21.1-5.8 21.1-17.4 0-5.8-1.7-10.2-5-13.1-3.4-3-8.7-4.4-16.1-4.4s-12.7 1.5-16 4.4c-3.3 2.9-5 7.3-5 13.3.1 11.4 7.1 17.2 21 17.2zm19.6 11.2H1252v114.6h39.5V171.9z" fill="#449fbf"/></svg>